<svg xmlns="http://www.w3.org/2000/svg" width="20" height="20" viewBox="0 0 20 20" fill="none">
  <path d="M13.3334 11.6667C13.3334 12.3571 13.893 12.9167 14.5834 12.9167C15.2737 12.9167 15.8334 12.3571 15.8334 11.6667C15.8334 10.9764 15.2737 10.4167 14.5834 10.4167C13.893 10.4167 13.3334 10.9764 13.3334 11.6667Z" stroke="#231F20" stroke-width="1.2"/>
  <path d="M15.75 6.66675C15.8047 6.39749 15.8333 6.11881 15.8333 5.83341C15.8333 3.53223 13.9678 1.66675 11.6667 1.66675C9.3655 1.66675 7.5 3.53223 7.5 5.83341C7.5 6.11881 7.52869 6.39749 7.58335 6.66675" stroke="#231F20" stroke-width="1.2"/>
  <path d="M5.83329 6.66095H13.3333C15.6903 6.66095 16.8688 6.66095 17.601 7.39354C18.3333 8.12613 18.3333 9.30517 18.3333 11.6633V13.3308C18.3333 15.689 18.3333 16.8681 17.601 17.6007C16.8688 18.3333 15.6903 18.3333 13.3333 18.3333H8.33329C5.19059 18.3333 3.61925 18.3333 2.64293 17.3565C1.66663 16.3797 1.66663 14.8076 1.66663 11.6633V9.99592C1.66663 6.85168 1.66663 5.27957 2.64293 4.30279C3.42884 3.5165 4.60032 3.36316 6.66663 3.33325H8.33329" stroke="#231F20" stroke-width="1.2" stroke-linecap="round"/>
</svg>