<svg xmlns="http://www.w3.org/2000/svg" width="25" height="25" viewBox="0 0 25 25" fill="none">
  <path d="M9.5 21.5V7.325L7.9 8.9L6.5 7.5L10.5 3.5L14.5 7.5L13.1 8.925L11.5 7.325V13.85C12.0833 13.3333 12.7417 12.9625 13.475 12.7375C14.2083 12.5125 14.9417 12.4 15.675 12.4C15.8583 12.4 16.0333 12.4083 16.2 12.425C16.3667 12.4417 16.525 12.4667 16.675 12.5L15.1 10.9L16.5 9.5L20.5 13.5L16.5 17.5L15.1 16.1L16.675 14.5C16.4917 14.4667 16.3083 14.4375 16.125 14.4125C15.9417 14.3875 15.7583 14.375 15.575 14.375C14.675 14.375 13.8458 14.6292 13.0875 15.1375C12.3292 15.6458 11.8 16.4333 11.5 17.5V21.5H9.5Z" fill="#E8EAED"/>
</svg>