<svg xmlns="http://www.w3.org/2000/svg" width="25" height="25" viewBox="0 0 25 25" fill="none">
  <path d="M15.5 21.5V7.325L17.1 8.9L18.5 7.5L14.5 3.5L10.5 7.5L11.9 8.925L13.5 7.325V13.85C12.9167 13.3333 12.2583 12.9625 11.525 12.7375C10.7917 12.5125 10.0583 12.4 9.325 12.4C9.14167 12.4 8.96667 12.4083 8.8 12.425C8.63333 12.4417 8.475 12.4667 8.325 12.5L9.9 10.9L8.5 9.5L4.5 13.5L8.5 17.5L9.9 16.1L8.325 14.5C8.50833 14.4667 8.69167 14.4375 8.875 14.4125C9.05833 14.3875 9.24167 14.375 9.425 14.375C10.325 14.375 11.1542 14.6292 11.9125 15.1375C12.6708 15.6458 13.2 16.4333 13.5 17.5V21.5H15.5Z" fill="#E8EAED"/>
</svg>