<svg xmlns="http://www.w3.org/2000/svg" width="20" height="20" viewBox="0 0 20 20" fill="none">
  <path d="M12.9166 9.16667C12.9166 10.7775 11.6108 12.0833 9.99992 12.0833C8.38909 12.0833 7.08325 10.7775 7.08325 9.16667C7.08325 7.55583 8.38909 6.25 9.99992 6.25C11.6108 6.25 12.9166 7.55583 12.9166 9.16667Z" stroke="white" stroke-width="1.5"/>
  <path d="M10 1.6665C14.0588 1.6665 17.5 5.02732 17.5 9.10467C17.5 13.2469 14.0027 16.1538 10.7725 18.1304C10.5371 18.2633 10.2708 18.3332 10 18.3332C9.72917 18.3332 9.46292 18.2633 9.2275 18.1304C6.00325 16.1345 2.5 13.2613 2.5 9.10467C2.5 5.02732 5.9412 1.6665 10 1.6665Z" stroke="white" stroke-width="1.5"/>
</svg>