<svg xmlns="http://www.w3.org/2000/svg" width="25" height="25" viewBox="0 0 25 25" fill="none">
  <path d="M15.5 21.5V15.4C15.5 14.9167 15.6583 14.4917 15.975 14.125C16.2917 13.7583 16.6917 13.5333 17.175 13.45C18.1417 13.2833 18.9375 12.8292 19.5625 12.0875C20.1875 11.3458 20.5 10.4833 20.5 9.5C20.5 8.4 20.1083 7.45833 19.325 6.675C18.5417 5.89167 17.6 5.5 16.5 5.5C15.5167 5.5 14.6542 5.8125 13.9125 6.4375C13.1708 7.0625 12.7167 7.85833 12.55 8.825C12.4667 9.30833 12.2417 9.70833 11.875 10.025C11.5083 10.3417 11.0833 10.5 10.6 10.5H6.325L7.925 12.1L6.5 13.5L2.5 9.5L6.5 5.5L7.9 6.9L6.325 8.5H10.575C10.8083 7.03333 11.4875 5.83333 12.6125 4.9C13.7375 3.96667 15.0333 3.5 16.5 3.5C18.1667 3.5 19.5833 4.08333 20.75 5.25C21.9167 6.41667 22.5 7.83333 22.5 9.5C22.5 10.9667 22.0333 12.2625 21.1 13.3875C20.1667 14.5125 18.9667 15.1917 17.5 15.425V21.5H15.5Z" fill="#E8EAED"/>
</svg>