<svg xmlns="http://www.w3.org/2000/svg" width="25" height="25" viewBox="0 0 25 25" fill="none">
  <path d="M9.5 21.5V15.4C9.5 14.9167 9.34167 14.4917 9.025 14.125C8.70833 13.7583 8.30833 13.5333 7.825 13.45C6.85833 13.2833 6.0625 12.8292 5.4375 12.0875C4.8125 11.3458 4.5 10.4833 4.5 9.5C4.5 8.4 4.89167 7.45833 5.675 6.675C6.45833 5.89167 7.4 5.5 8.5 5.5C9.48333 5.5 10.3458 5.8125 11.0875 6.4375C11.8292 7.0625 12.2833 7.85833 12.45 8.825C12.5333 9.30833 12.7583 9.70833 13.125 10.025C13.4917 10.3417 13.9167 10.5 14.4 10.5H18.675L17.075 12.1L18.5 13.5L22.5 9.5L18.5 5.5L17.1 6.9L18.675 8.5H14.425C14.1917 7.03333 13.5125 5.83333 12.3875 4.9C11.2625 3.96667 9.96667 3.5 8.5 3.5C6.83333 3.5 5.41667 4.08333 4.25 5.25C3.08333 6.41667 2.5 7.83333 2.5 9.5C2.5 10.9667 2.96667 12.2625 3.9 13.3875C4.83333 14.5125 6.03333 15.1917 7.5 15.425V21.5H9.5Z" fill="#E8EAED"/>
</svg>