<svg xmlns="http://www.w3.org/2000/svg" width="20" height="20" viewBox="0 0 20 20" fill="none">
  <path d="M4.43472 8.06903C6.44612 4.50991 7.45181 2.73034 8.83188 2.27226C9.59105 2.02025 10.4089 2.02025 11.168 2.27226C12.5481 2.73034 13.5538 4.50991 15.5652 8.06903C17.5766 11.6281 18.5823 13.4077 18.2806 14.8577C18.1146 15.6554 17.7057 16.3789 17.1125 16.9247C16.0341 17.9166 14.0228 17.9166 9.99996 17.9166C5.97717 17.9166 3.96577 17.9166 2.88743 16.9247C2.2942 16.3789 1.88529 15.6554 1.71931 14.8577C1.41762 13.4077 2.42332 11.6281 4.43472 8.06903Z" stroke="#231F20" stroke-width="1.2"/>
  <path d="M10.2019 14.1667V10.8333C10.2019 10.4405 10.2019 10.2441 10.0798 10.122C9.95778 10 9.76136 10 9.36853 10" stroke="#231F20" stroke-width="1.2" stroke-linecap="round" stroke-linejoin="round"/>
  <path d="M9.99329 7.5H10.0008" stroke="#231F20" stroke-width="1.5" stroke-linecap="round" stroke-linejoin="round"/>
</svg>