<svg xmlns="http://www.w3.org/2000/svg" width="20" height="20" viewBox="0 0 20 20" fill="none">
  <g clip-path="url(#clip0_1334_11058)">
    <path d="M12.0833 8.33333C11.7248 7.12855 10.4879 6.25 9.16667 6.25C7.55583 6.25 6.25 7.55583 6.25 9.16667C6.25 10.636 7.33654 11.8812 8.75 12.0833" stroke="#231F20" stroke-width="1.5" stroke-linecap="round"/>
    <path d="M16.6254 8.33317C16.2248 4.61189 12.9664 1.6665 9.16675 1.6665C5.10795 1.6665 1.66675 5.02732 1.66675 9.10467C1.66675 13.2613 5.17 16.1345 8.39425 18.1304C8.62966 18.2633 8.89591 18.3332 9.16675 18.3332C9.43758 18.3332 9.70383 18.2633 9.93925 18.1304C10.1514 18.0006 10.3647 17.8668 10.5782 17.7288" stroke="#231F20" stroke-width="1.5" stroke-linecap="round"/>
    <path d="M14.5833 10C16.6127 10 18.3333 11.6804 18.3333 13.7191C18.3333 15.7902 16.5847 17.2437 14.9695 18.2319C14.8518 18.2984 14.7187 18.3333 14.5833 18.3333C14.4478 18.3333 14.3147 18.2984 14.197 18.2319C12.5848 17.234 10.8333 15.7973 10.8333 13.7191C10.8333 11.6804 12.5538 10 14.5833 10Z" stroke="#231F20" stroke-width="1.5"/>
    <path d="M14.5833 13.75H14.5908" stroke="#231F20" stroke-width="2" stroke-linecap="round" stroke-linejoin="round"/>
  </g>
  <defs>
    <clipPath id="clip0_1334_11058">
      <rect width="20" height="20" fill="white"/>
    </clipPath>
  </defs>
</svg>