<svg xmlns="http://www.w3.org/2000/svg" width="25" height="25" viewBox="0 0 25 25" fill="none">
  <path d="M16.5 21.5V9.5C16.5 8.4 16.1083 7.45833 15.325 6.675C14.5417 5.89167 13.6 5.5 12.5 5.5C11.4 5.5 10.4583 5.89167 9.675 6.675C8.89167 7.45833 8.5 8.4 8.5 9.5V13.7L10.1 12.1L11.5 13.5L7.5 17.5L3.5 13.5L4.9 12.1L6.5 13.7V9.5C6.5 7.83333 7.08333 6.41667 8.25 5.25C9.41667 4.08333 10.8333 3.5 12.5 3.5C14.1667 3.5 15.5833 4.08333 16.75 5.25C17.9167 6.41667 18.5 7.83333 18.5 9.5V21.5H16.5Z" fill="#E8EAED"/>
</svg>