<svg xmlns="http://www.w3.org/2000/svg" width="25" height="25" viewBox="0 0 25 25" fill="none">
  <path d="M8.5 21.5V9.5C8.5 8.4 8.89167 7.45833 9.675 6.675C10.4583 5.89167 11.4 5.5 12.5 5.5C13.6 5.5 14.5417 5.89167 15.325 6.675C16.1083 7.45833 16.5 8.4 16.5 9.5V13.7L14.9 12.1L13.5 13.5L17.5 17.5L21.5 13.5L20.1 12.1L18.5 13.7V9.5C18.5 7.83333 17.9167 6.41667 16.75 5.25C15.5833 4.08333 14.1667 3.5 12.5 3.5C10.8333 3.5 9.41667 4.08333 8.25 5.25C7.08333 6.41667 6.5 7.83333 6.5 9.5V21.5H8.5Z" fill="#E8EAED"/>
</svg>